<svg width="3896" height="623" viewBox="0 0 3896 623" fill="none" xmlns="http://www.w3.org/2000/svg">
<rect y="278" width="706" height="88" rx="5" fill="black"/>
<path d="M67.7678 530.54C66.7915 529.563 66.7915 527.981 67.7678 527.004L290.194 304.578C291.17 303.602 292.753 303.602 293.73 304.578L354.187 365.035L131.761 587.462C129.808 589.414 126.642 589.414 124.69 587.462L67.7678 530.54Z" fill="black"/>
<path d="M66.0008 529.805C66.0008 529.142 66.2642 528.506 66.733 528.037L290.195 304.576C291.171 303.6 292.754 303.6 293.73 304.576L354.188 365.034L129.691 589.531C128.753 590.469 127.482 590.995 126.156 590.995L68.5001 590.997C67.1193 590.997 66 589.877 66 588.497L66.0008 529.805Z" fill="black"/>
<path d="M638.994 530.839C638.994 529.513 638.467 528.242 637.53 527.304L417.758 307.532C415.805 305.58 412.639 305.58 410.687 307.532L351.997 366.222L575.304 589.53C576.242 590.467 577.514 590.994 578.84 590.994L633.997 590.997C636.758 590.997 638.997 588.759 638.997 585.997L638.994 530.839Z" fill="black"/>
<path d="M264.995 0L335.706 70.7107C351.327 86.3316 351.327 111.658 335.706 127.279L264.995 197.99L194.284 127.279C178.663 111.658 178.663 86.3316 194.284 70.7107L264.995 0Z" fill="#FF6D6D"/>
<path d="M352.996 0L423.707 70.7107C439.328 86.3316 439.328 111.658 423.707 127.279L352.996 197.99L282.285 127.279C266.664 111.658 266.664 86.3316 282.285 70.7107L352.996 0Z" fill="#FFAC4E"/>
<path d="M450.995 0L521.706 70.7107C537.327 86.3316 537.327 111.658 521.706 127.279L450.995 197.99L380.284 127.279C364.663 111.658 364.663 86.3316 380.284 70.7107L450.995 0Z" fill="#41C74E"/>
<path d="M3746.13 596.44C3704.9 596.44 3668.65 586.258 3637.36 565.895C3606.56 545.531 3584.96 518.215 3572.54 483.945L3637.36 453.4C3648.28 476.246 3663.18 494.375 3682.06 507.785C3701.43 521.195 3722.78 527.9 3746.13 527.9C3765.99 527.9 3782.14 523.43 3794.55 514.49C3806.97 505.55 3813.18 493.381 3813.18 477.985C3813.18 468.051 3810.45 460.105 3804.98 454.145C3799.52 447.688 3792.57 442.473 3784.12 438.5C3776.18 434.526 3767.98 431.546 3759.54 429.56L3696.21 411.68C3661.45 401.746 3635.37 386.846 3617.99 366.98C3601.1 346.616 3592.66 323.025 3592.66 296.205C3592.66 271.868 3598.87 250.76 3611.28 232.88C3623.7 214.503 3640.83 200.348 3662.69 190.415C3684.54 180.481 3709.13 175.515 3736.44 175.515C3773.2 175.515 3805.98 184.703 3834.78 203.08C3863.59 220.96 3883.95 246.041 3895.87 278.325L3831.06 308.87C3823.11 289.5 3810.45 274.103 3793.06 262.68C3776.18 251.256 3757.05 245.545 3735.7 245.545C3717.32 245.545 3702.67 250.015 3691.74 258.955C3680.82 267.398 3675.35 278.573 3675.35 292.48C3675.35 301.916 3677.84 309.863 3682.8 316.32C3687.77 322.28 3694.23 327.246 3702.17 331.22C3710.12 334.696 3718.31 337.676 3726.76 340.16L3792.32 359.53C3825.59 368.966 3851.17 383.866 3869.05 404.23C3886.93 424.096 3895.87 447.936 3895.87 475.75C3895.87 499.59 3889.42 520.698 3876.5 539.075C3864.09 556.955 3846.7 571.11 3824.35 581.54C3802 591.473 3775.93 596.44 3746.13 596.44Z" fill="black"/>
<path d="M3327.21 587.5V184.455H3407.67V265.66L3400.22 253.74C3409.16 227.416 3423.56 208.543 3443.43 197.12C3463.3 185.2 3487.14 179.24 3514.95 179.24H3539.54V255.975H3504.52C3476.71 255.975 3454.11 264.666 3436.73 282.05C3419.84 298.936 3411.4 323.273 3411.4 355.06V587.5H3327.21Z" fill="black"/>
<path d="M3059.55 596.44C3019.32 596.44 2983.56 587.251 2952.27 568.875C2921.47 550.001 2897.39 524.671 2880 492.885C2862.62 460.601 2853.93 424.593 2853.93 384.86C2853.93 344.133 2862.62 308.125 2880 276.835C2897.88 245.545 2921.72 220.96 2951.52 203.08C2981.32 184.703 3015.1 175.515 3052.84 175.515C3083.14 175.515 3110.21 180.73 3134.05 191.16C3157.89 201.59 3178 215.993 3194.39 234.37C3210.78 252.25 3223.2 272.861 3231.64 296.205C3240.58 319.548 3245.05 344.381 3245.05 370.705C3245.05 377.161 3244.8 383.866 3244.31 390.82C3243.81 397.773 3242.82 404.23 3241.33 410.19H2920.23V343.14H3193.65L3153.42 373.685C3158.38 349.348 3156.65 327.743 3148.2 308.87C3140.25 289.5 3127.84 274.351 3110.95 263.425C3094.56 252.001 3075.19 246.29 3052.84 246.29C3030.49 246.29 3010.63 252.001 2993.24 263.425C2975.86 274.351 2962.45 290.245 2953.01 311.105C2943.58 331.468 2939.85 356.301 2941.84 385.605C2939.35 412.921 2943.08 436.761 2953.01 457.125C2963.44 477.488 2977.85 493.381 2996.22 504.805C3015.1 516.228 3036.45 521.94 3060.29 521.94C3084.63 521.94 3105.24 516.476 3122.13 505.55C3139.51 494.623 3153.17 480.468 3163.1 463.085L3231.64 496.61C3223.7 515.483 3211.28 532.618 3194.39 548.015C3178 562.915 3158.14 574.835 3134.79 583.775C3111.95 592.218 3086.86 596.44 3059.55 596.44Z" fill="black"/>
<path d="M2749.99 591.97C2707.78 591.97 2675 580.05 2651.65 556.21C2628.31 532.37 2616.64 498.845 2616.64 455.635V260.445H2545.86V184.455H2557.04C2575.91 184.455 2590.56 178.992 2600.99 168.065C2611.42 157.138 2616.64 142.238 2616.64 123.365V92.075H2700.82V184.455H2792.46V260.445H2700.82V451.91C2700.82 465.817 2703.06 477.737 2707.53 487.67C2712 497.107 2719.2 504.557 2729.13 510.02C2739.07 514.987 2751.98 517.47 2767.87 517.47C2771.85 517.47 2776.32 517.222 2781.28 516.725C2786.25 516.228 2790.97 515.732 2795.44 515.235V587.5C2788.49 588.493 2780.79 589.487 2772.34 590.48C2763.9 591.473 2756.45 591.97 2749.99 591.97Z" fill="black"/>
<path d="M2448.06 591.97C2405.85 591.97 2373.07 580.05 2349.72 556.21C2326.38 532.37 2314.71 498.845 2314.71 455.635V260.445H2243.93V184.455H2255.11C2273.98 184.455 2288.63 178.992 2299.06 168.065C2309.49 157.138 2314.71 142.238 2314.71 123.365V92.075H2398.89V184.455H2490.53V260.445H2398.89V451.91C2398.89 465.817 2401.13 477.737 2405.6 487.67C2410.07 497.107 2417.27 504.557 2427.2 510.02C2437.14 514.987 2450.05 517.47 2465.94 517.47C2469.92 517.47 2474.39 517.222 2479.35 516.725C2484.32 516.228 2489.04 515.732 2493.51 515.235V587.5C2486.56 588.493 2478.86 589.487 2470.41 590.48C2461.97 591.473 2454.52 591.97 2448.06 591.97Z" fill="black"/>
<path d="M1971 596.44C1943.68 596.44 1919.59 591.721 1898.73 582.285C1878.37 572.351 1862.48 558.941 1851.05 542.055C1839.63 524.671 1833.92 504.308 1833.92 480.965C1833.92 459.111 1838.64 439.493 1848.07 422.11C1858.01 404.726 1873.15 390.075 1893.52 378.155C1913.88 366.235 1939.46 357.791 1970.25 352.825L2110.31 329.73V396.035L1986.64 417.64C1964.29 421.613 1947.9 428.815 1937.47 439.245C1927.04 449.178 1921.83 462.091 1921.83 477.985C1921.83 493.381 1927.54 506.046 1938.96 515.98C1950.88 525.416 1966.03 530.135 1984.41 530.135C2007.25 530.135 2027.12 525.168 2044.01 515.235C2061.39 505.301 2074.8 492.14 2084.24 475.75C2093.67 458.863 2098.39 440.238 2098.39 419.875V316.32C2098.39 296.453 2090.94 280.311 2076.04 267.895C2061.64 254.981 2042.27 248.525 2017.93 248.525C1995.58 248.525 1975.96 254.485 1959.08 266.405C1942.69 277.828 1930.52 292.728 1922.57 311.105L1852.54 276.09C1859.99 256.223 1872.16 238.84 1889.05 223.94C1905.93 208.543 1925.55 196.623 1947.9 188.18C1970.75 179.736 1994.84 175.515 2020.17 175.515C2051.95 175.515 2080.02 181.475 2104.35 193.395C2129.19 205.315 2148.31 221.953 2161.72 243.31C2175.62 264.17 2182.58 288.506 2182.58 316.32V587.5H2102.12V514.49L2119.25 516.725C2109.82 533.115 2097.65 547.27 2082.75 559.19C2068.34 571.11 2051.71 580.298 2032.83 586.755C2014.46 593.211 1993.84 596.44 1971 596.44Z" fill="black"/>
<path d="M1413.78 587.5V23.5349H1497.97V263.425L1484.56 252.995C1494.49 227.665 1510.38 208.543 1532.24 195.63C1554.09 182.22 1579.42 175.515 1608.23 175.515C1638.03 175.515 1664.35 181.972 1687.2 194.885C1710.04 207.798 1727.92 225.678 1740.84 248.525C1753.75 271.372 1760.21 297.447 1760.21 326.75V587.5H1676.77V349.845C1676.77 329.482 1672.79 312.347 1664.85 298.44C1657.4 284.037 1646.97 273.11 1633.56 265.66C1620.15 257.713 1604.75 253.74 1587.37 253.74C1570.48 253.74 1555.08 257.713 1541.18 265.66C1527.77 273.11 1517.09 284.037 1509.14 298.44C1501.69 312.843 1497.97 329.978 1497.97 349.845V587.5H1413.78Z" fill="black"/>
<path d="M1153.45 596.44C1113.22 596.44 1077.46 587.251 1046.17 568.875C1015.37 550.001 990.788 524.671 972.412 492.885C954.532 461.098 945.592 425.09 945.592 384.86C945.592 345.126 954.532 309.366 972.412 277.58C990.292 245.793 1014.88 220.96 1046.17 203.08C1077.46 184.703 1113.22 175.515 1153.45 175.515C1180.76 175.515 1206.34 180.481 1230.18 190.415C1254.02 199.851 1274.63 213.013 1292.02 229.9C1309.9 246.786 1323.06 266.405 1331.5 288.755L1257.75 323.025C1249.3 302.165 1235.65 285.526 1216.77 273.11C1198.4 260.196 1177.29 253.74 1153.45 253.74C1130.6 253.74 1109.99 259.451 1091.61 270.875C1073.73 281.801 1059.58 297.446 1049.15 317.81C1038.72 337.676 1033.5 360.275 1033.5 385.605C1033.5 410.935 1038.72 433.781 1049.15 454.145C1059.58 474.011 1073.73 489.656 1091.61 501.08C1109.99 512.503 1130.6 518.215 1153.45 518.215C1177.78 518.215 1198.89 512.006 1216.77 499.59C1235.15 486.676 1248.81 469.541 1257.75 448.185L1331.5 483.2C1323.56 504.556 1310.64 523.926 1292.76 541.31C1275.38 558.196 1254.77 571.606 1230.93 581.54C1207.09 591.473 1181.26 596.44 1153.45 596.44Z" fill="black"/>
</svg>
