<svg width="578" height="578" viewBox="0 0 578 578" fill="none" xmlns="http://www.w3.org/2000/svg">
<rect x="7" y="262.4" width="564.8" height="70.4" rx="4" fill="black"/>
<path d="M61.215 464.432C60.4339 463.651 60.4339 462.384 61.215 461.603L239.156 283.662C239.937 282.881 241.203 282.881 241.985 283.662L290.351 332.028L112.41 509.969C110.847 511.532 108.315 511.532 106.753 509.969L61.215 464.432Z" fill="black"/>
<path d="M59.8014 463.844C59.8014 463.314 60.0122 462.805 60.3872 462.43L239.156 283.661C239.938 282.88 241.204 282.88 241.985 283.661L290.351 332.027L110.754 511.625C110.003 512.375 108.986 512.797 107.925 512.797L61.8009 512.798C60.6963 512.798 59.8008 511.902 59.8008 510.798L59.8014 463.844Z" fill="black"/>
<path d="M518.196 464.671C518.196 463.611 517.774 462.593 517.024 461.843L341.207 286.026C339.645 284.464 337.112 284.464 335.55 286.026L288.598 332.978L467.244 511.624C467.994 512.374 469.011 512.795 470.072 512.795L514.198 512.798C516.407 512.798 518.198 511.007 518.198 508.797L518.196 464.671Z" fill="black"/>
<path d="M218.998 40L275.567 96.5685C288.063 109.065 288.063 129.327 275.567 141.823L218.998 198.392L162.43 141.823C149.933 129.327 149.933 109.065 162.43 96.5685L218.998 40Z" fill="#FF6D6D"/>
<path d="M289.396 40L345.965 96.5685C358.462 109.065 358.462 129.327 345.965 141.823L289.396 198.392L232.828 141.823C220.331 129.327 220.331 109.065 232.828 96.5685L289.396 40Z" fill="#FFAC4E"/>
<path d="M367.797 40L424.365 96.5685C436.862 109.065 436.862 129.327 424.365 141.823L367.797 198.392L311.228 141.823C298.732 129.327 298.732 109.065 311.228 96.5685L367.797 40Z" fill="#41C74E"/>
</svg>
