<svg width="706" height="591" viewBox="0 0 706 591" fill="none" xmlns="http://www.w3.org/2000/svg">
<g clip-path="url(#clip0_111_118)">
<rect y="278" width="706" height="88" rx="5" fill="black"/>
<path d="M67.7678 530.54C66.7915 529.563 66.7915 527.981 67.7678 527.004L290.194 304.578C291.17 303.602 292.753 303.602 293.73 304.578L354.187 365.035L131.761 587.462C129.808 589.414 126.642 589.414 124.69 587.462L67.7678 530.54Z" fill="black"/>
<path d="M66.0008 529.805C66.0008 529.142 66.2642 528.506 66.733 528.037L290.195 304.576C291.171 303.6 292.754 303.6 293.73 304.576L354.188 365.034L129.691 589.531C128.753 590.469 127.482 590.995 126.156 590.995L68.5001 590.997C67.1193 590.997 66 589.877 66 588.497L66.0008 529.805Z" fill="black"/>
<path d="M638.994 530.839C638.994 529.513 638.467 528.242 637.53 527.304L417.758 307.532C415.805 305.579 412.639 305.579 410.687 307.532L351.997 366.222L575.304 589.529C576.242 590.467 577.514 590.994 578.84 590.994L633.997 590.997C636.758 590.997 638.997 588.758 638.997 585.997L638.994 530.839Z" fill="black"/>
<path d="M264.995 0L335.706 70.7107C351.327 86.3316 351.327 111.658 335.706 127.279L264.995 197.99L194.284 127.279C178.663 111.658 178.663 86.3316 194.284 70.7107L264.995 0Z" fill="#6D8DFF"/>
<path d="M352.996 0L423.707 70.7107C439.328 86.3316 439.328 111.658 423.707 127.279L352.996 197.99L282.285 127.279C266.664 111.658 266.664 86.3316 282.285 70.7107L352.996 0Z" fill="#4E74FF"/>
<path d="M450.995 0L521.706 70.7107C537.327 86.3316 537.327 111.658 521.706 127.279L450.995 197.99L380.284 127.279C364.663 111.658 364.663 86.3316 380.284 70.7107L450.995 0Z" fill="#2F5CFF"/>
</g>
<defs>
<clipPath id="clip0_111_118">
<rect width="706" height="591" fill="white"/>
</clipPath>
</defs>
</svg>
