<svg width="3934" height="623" viewBox="0 0 3934 623" fill="none" xmlns="http://www.w3.org/2000/svg">
<g filter="url(#filter0_d_115_129)">
<rect x="4" y="278" width="706" height="88" rx="5" fill="white"/>
<path d="M71.7678 530.539C70.7915 529.563 70.7915 527.98 71.7678 527.004L294.194 304.577C295.17 303.601 296.753 303.601 297.73 304.577L358.187 365.035L135.761 587.461C133.808 589.414 130.642 589.414 128.69 587.461L71.7678 530.539Z" fill="black"/>
<path d="M70.0008 529.805C70.0008 529.142 70.2642 528.506 70.733 528.037L294.195 304.576C295.171 303.6 296.754 303.6 297.73 304.576L358.188 365.034L133.691 589.531C132.753 590.469 131.482 590.995 130.156 590.995L72.5001 590.997C71.1193 590.997 70 589.877 70 588.497L70.0008 529.805Z" fill="white"/>
<path d="M642.994 530.839C642.994 529.513 642.467 528.242 641.53 527.304L421.758 307.532C419.805 305.58 416.639 305.58 414.687 307.532L355.997 366.222L579.304 589.53C580.242 590.467 581.514 590.994 582.84 590.994L637.997 590.997C640.758 590.997 642.997 588.759 642.997 585.997L642.994 530.839Z" fill="white"/>
<path d="M268.995 0L339.706 70.7107C355.327 86.3316 355.327 111.658 339.706 127.279L268.995 197.99L198.284 127.279C182.663 111.658 182.663 86.3316 198.284 70.7107L268.995 0Z" fill="#6D8DFF"/>
<path d="M356.996 0L427.707 70.7107C443.328 86.3316 443.328 111.658 427.707 127.279L356.996 197.99L286.285 127.279C270.664 111.658 270.664 86.3316 286.285 70.7107L356.996 0Z" fill="#4E74FF"/>
<path d="M454.995 0L525.706 70.7107C541.327 86.3316 541.327 111.658 525.706 127.279L454.995 197.99L384.284 127.279C368.663 111.658 368.663 86.3316 384.284 70.7107L454.995 0Z" fill="#2F5CFF"/>
<path d="M1157.45 596.44C1117.22 596.44 1081.46 587.252 1050.17 568.875C1019.37 550.002 994.788 524.672 976.412 492.885C958.532 461.098 949.592 425.09 949.592 384.86C949.592 345.127 958.532 309.367 976.412 277.58C994.292 245.793 1018.88 220.96 1050.17 203.08C1081.46 184.703 1117.22 175.515 1157.45 175.515C1184.76 175.515 1210.34 180.482 1234.18 190.415C1258.02 199.852 1278.63 213.013 1296.02 229.9C1313.9 246.787 1327.06 266.405 1335.5 288.755L1261.75 323.025C1253.3 302.165 1239.64 285.527 1220.77 273.11C1202.39 260.197 1181.29 253.74 1157.45 253.74C1134.6 253.74 1113.99 259.452 1095.61 270.875C1077.73 281.802 1063.58 297.447 1053.15 317.81C1042.72 337.677 1037.5 360.275 1037.5 385.605C1037.5 410.935 1042.72 433.782 1053.15 454.145C1063.58 474.012 1077.73 489.657 1095.61 501.08C1113.99 512.503 1134.6 518.215 1157.45 518.215C1181.78 518.215 1202.89 512.007 1220.77 499.59C1239.15 486.677 1252.81 469.542 1261.75 448.185L1335.5 483.2C1327.55 504.557 1314.64 523.927 1296.76 541.31C1279.38 558.197 1258.77 571.607 1234.93 581.54C1211.09 591.473 1185.26 596.44 1157.45 596.44ZM1417.78 587.5V23.535H1501.97V263.425L1488.56 252.995C1498.49 227.665 1514.38 208.543 1536.24 195.63C1558.09 182.22 1583.42 175.515 1612.23 175.515C1642.03 175.515 1668.35 181.972 1691.2 194.885C1714.04 207.798 1731.92 225.678 1744.84 248.525C1757.75 271.372 1764.21 297.447 1764.21 326.75V587.5H1680.77V349.845C1680.77 329.482 1676.79 312.347 1668.85 298.44C1661.4 284.037 1650.97 273.11 1637.56 265.66C1624.15 257.713 1608.75 253.74 1591.37 253.74C1574.48 253.74 1559.08 257.713 1545.18 265.66C1531.77 273.11 1521.09 284.037 1513.14 298.44C1505.69 312.843 1501.97 329.978 1501.97 349.845V587.5H1417.78ZM1975 596.44C1947.68 596.44 1923.59 591.722 1902.73 582.285C1882.37 572.352 1866.48 558.942 1855.05 542.055C1843.63 524.672 1837.92 504.308 1837.92 480.965C1837.92 459.112 1842.64 439.493 1852.07 422.11C1862.01 404.727 1877.15 390.075 1897.52 378.155C1917.88 366.235 1943.46 357.792 1974.25 352.825L2114.31 329.73V396.035L1990.64 417.64C1968.29 421.613 1951.9 428.815 1941.47 439.245C1931.04 449.178 1925.83 462.092 1925.83 477.985C1925.83 493.382 1931.54 506.047 1942.96 515.98C1954.88 525.417 1970.03 530.135 1988.41 530.135C2011.25 530.135 2031.12 525.168 2048.01 515.235C2065.39 505.302 2078.8 492.14 2088.24 475.75C2097.67 458.863 2102.39 440.238 2102.39 419.875V316.32C2102.39 296.453 2094.94 280.312 2080.04 267.895C2065.64 254.982 2046.27 248.525 2021.93 248.525C1999.58 248.525 1979.96 254.485 1963.08 266.405C1946.69 277.828 1934.52 292.728 1926.57 311.105L1856.54 276.09C1863.99 256.223 1876.16 238.84 1893.05 223.94C1909.93 208.543 1929.55 196.623 1951.9 188.18C1974.75 179.737 1998.84 175.515 2024.17 175.515C2055.95 175.515 2084.02 181.475 2108.35 193.395C2133.19 205.315 2152.31 221.953 2165.72 243.31C2179.62 264.17 2186.58 288.507 2186.58 316.32V587.5H2106.12V514.49L2123.25 516.725C2113.82 533.115 2101.65 547.27 2086.75 559.19C2072.34 571.11 2055.71 580.298 2036.83 586.755C2018.46 593.212 1997.84 596.44 1975 596.44ZM2452.06 591.97C2409.85 591.97 2377.07 580.05 2353.72 556.21C2330.38 532.37 2318.71 498.845 2318.71 455.635V260.445H2247.93V184.455H2259.11C2277.98 184.455 2292.63 178.992 2303.06 168.065C2313.49 157.138 2318.71 142.238 2318.71 123.365V92.075H2402.89V184.455H2494.53V260.445H2402.89V451.91C2402.89 465.817 2405.13 477.737 2409.6 487.67C2414.07 497.107 2421.27 504.557 2431.2 510.02C2441.14 514.987 2454.05 517.47 2469.94 517.47C2473.92 517.47 2478.39 517.222 2483.35 516.725C2488.32 516.228 2493.04 515.732 2497.51 515.235V587.5C2490.56 588.493 2482.86 589.487 2474.41 590.48C2465.97 591.473 2458.52 591.97 2452.06 591.97ZM2753.99 591.97C2711.78 591.97 2679 580.05 2655.65 556.21C2632.31 532.37 2620.64 498.845 2620.64 455.635V260.445H2549.86V184.455H2561.04C2579.91 184.455 2594.56 178.992 2604.99 168.065C2615.42 157.138 2620.64 142.238 2620.64 123.365V92.075H2704.82V184.455H2796.46V260.445H2704.82V451.91C2704.82 465.817 2707.06 477.737 2711.53 487.67C2716 497.107 2723.2 504.557 2733.13 510.02C2743.07 514.987 2755.98 517.47 2771.87 517.47C2775.85 517.47 2780.32 517.222 2785.28 516.725C2790.25 516.228 2794.97 515.732 2799.44 515.235V587.5C2792.48 588.493 2784.79 589.487 2776.34 590.48C2767.9 591.473 2760.45 591.97 2753.99 591.97ZM3063.55 596.44C3023.32 596.44 2987.56 587.252 2956.27 568.875C2925.47 550.002 2901.38 524.672 2884 492.885C2866.62 460.602 2857.93 424.593 2857.93 384.86C2857.93 344.133 2866.62 308.125 2884 276.835C2901.88 245.545 2925.72 220.96 2955.52 203.08C2985.32 184.703 3019.09 175.515 3056.84 175.515C3087.14 175.515 3114.21 180.73 3138.05 191.16C3161.89 201.59 3182 215.993 3198.39 234.37C3214.78 252.25 3227.2 272.862 3235.64 296.205C3244.58 319.548 3249.05 344.382 3249.05 370.705C3249.05 377.162 3248.8 383.867 3248.31 390.82C3247.81 397.773 3246.82 404.23 3245.33 410.19H2924.23V343.14H3197.65L3157.42 373.685C3162.38 349.348 3160.64 327.743 3152.2 308.87C3144.25 289.5 3131.84 274.352 3114.95 263.425C3098.56 252.002 3079.19 246.29 3056.84 246.29C3034.49 246.29 3014.62 252.002 2997.24 263.425C2979.86 274.352 2966.45 290.245 2957.01 311.105C2947.57 331.468 2943.85 356.302 2945.84 385.605C2943.35 412.922 2947.08 436.762 2957.01 457.125C2967.44 477.488 2981.84 493.382 3000.22 504.805C3019.09 516.228 3040.45 521.94 3064.29 521.94C3088.63 521.94 3109.24 516.477 3126.13 505.55C3143.51 494.623 3157.17 480.468 3167.1 463.085L3235.64 496.61C3227.69 515.483 3215.28 532.618 3198.39 548.015C3182 562.915 3162.13 574.835 3138.79 583.775C3115.94 592.218 3090.86 596.44 3063.55 596.44ZM3331.21 587.5V184.455H3411.67V265.66L3404.22 253.74C3413.16 227.417 3427.56 208.543 3447.43 197.12C3467.3 185.2 3491.14 179.24 3518.95 179.24H3543.54V255.975H3508.52C3480.71 255.975 3458.11 264.667 3440.73 282.05C3423.84 298.937 3415.4 323.273 3415.4 355.06V587.5H3331.21ZM3750.13 596.44C3708.9 596.44 3672.65 586.258 3641.36 565.895C3610.56 545.532 3588.96 518.215 3576.54 483.945L3641.36 453.4C3652.28 476.247 3667.18 494.375 3686.06 507.785C3705.43 521.195 3726.78 527.9 3750.13 527.9C3769.99 527.9 3786.14 523.43 3798.55 514.49C3810.97 505.55 3817.18 493.382 3817.18 477.985C3817.18 468.052 3814.45 460.105 3808.98 454.145C3803.52 447.688 3796.57 442.473 3788.12 438.5C3780.18 434.527 3771.98 431.547 3763.54 429.56L3700.21 411.68C3665.45 401.747 3639.37 386.847 3621.99 366.98C3605.1 346.617 3596.66 323.025 3596.66 296.205C3596.66 271.868 3602.87 250.76 3615.28 232.88C3627.7 214.503 3644.83 200.348 3666.69 190.415C3688.54 180.482 3713.13 175.515 3740.44 175.515C3777.2 175.515 3809.98 184.703 3838.78 203.08C3867.59 220.96 3887.95 246.042 3899.87 278.325L3835.06 308.87C3827.11 289.5 3814.45 274.103 3797.06 262.68C3780.18 251.257 3761.05 245.545 3739.7 245.545C3721.32 245.545 3706.67 250.015 3695.74 258.955C3684.82 267.398 3679.35 278.573 3679.35 292.48C3679.35 301.917 3681.84 309.863 3686.8 316.32C3691.77 322.28 3698.23 327.247 3706.17 331.22C3714.12 334.697 3722.31 337.677 3730.76 340.16L3796.32 359.53C3829.59 368.967 3855.17 383.867 3873.05 404.23C3890.93 424.097 3899.87 447.937 3899.87 475.75C3899.87 499.59 3893.42 520.698 3880.5 539.075C3868.09 556.955 3850.7 571.11 3828.35 581.54C3806 591.473 3779.93 596.44 3750.13 596.44Z" fill="white"/>
</g>
<defs>
<filter id="filter0_d_115_129" x="0" y="0" width="3903.87" height="604.44" filterUnits="userSpaceOnUse" color-interpolation-filters="sRGB">
<feFlood flood-opacity="0" result="BackgroundImageFix"/>
<feColorMatrix in="SourceAlpha" type="matrix" values="0 0 0 0 0 0 0 0 0 0 0 0 0 0 0 0 0 0 127 0" result="hardAlpha"/>
<feOffset dy="4"/>
<feGaussianBlur stdDeviation="2"/>
<feComposite in2="hardAlpha" operator="out"/>
<feColorMatrix type="matrix" values="0 0 0 0 0 0 0 0 0 0 0 0 0 0 0 0 0 0 0.25 0"/>
<feBlend mode="normal" in2="BackgroundImageFix" result="effect1_dropShadow_115_129"/>
<feBlend mode="normal" in="SourceGraphic" in2="effect1_dropShadow_115_129" result="shape"/>
</filter>
</defs>
</svg>
